<?xml version="1.0" encoding="UTF-8"?>
<svg id="Layer_1" xmlns="http://www.w3.org/2000/svg" viewBox="0 0 331.39 105.82">
  <defs>
    <style>
      .cls-1 {
        fill: #363638;
      }
    </style>
  </defs>
  <path class="cls-1" d="M11.07,9.2h19.88v81.38H11.07V9.2Z"/>
  <path class="cls-1" d="M110.36,90.58v-37.37c0-8.54-1.74-14.97-5.21-19.29-3.47-4.31-8.65-6.47-15.51-6.47-3.43,0-6.43.54-8.98,1.62-2.56,1.08-4.69,2.68-6.41,4.79-1.72,2.12-2.99,4.79-3.83,8.03s-1.26,7.01-1.26,11.32v37.37h-19.65v-34.98c0-15.41,3.45-27.17,10.36-35.28,6.91-8.1,16.91-12.16,30.01-12.16s23.1,4.05,30.01,12.16c6.91,8.11,10.36,19.87,10.36,35.28v34.98h-19.88Z"/>
  <path class="cls-1" d="M148.42,70.69h37.37c8.54,0,14.97-1.74,19.29-5.21s6.47-8.65,6.47-15.51c0-3.43-.54-6.43-1.62-8.98-1.08-2.56-2.68-4.69-4.79-6.41-2.12-1.72-4.79-2.99-8.03-3.83s-7.01-1.26-11.32-1.26h-37.37V9.84h34.98c15.41,0,27.17,3.45,35.28,10.36,8.1,6.91,12.16,16.91,12.16,30.01s-4.05,23.1-12.16,30.01c-8.11,6.91-19.87,10.36-35.28,10.36h-34.98v-19.88Z"/>
  <path class="cls-1" d="M267.73,49.25l-30.67-39.05h22.4l20.12,26.23,20.24-26.23h21.44l-30.55,38.81,32.58,41.57h-22.4l-22.04-28.63-21.8,28.63h-21.44l32.1-41.33Z"/>
</svg>